<?xml version="1.0" standalone="no"?>
<!DOCTYPE svg PUBLIC "-//W3C//DTD SVG 20010904//EN"
 "http://www.w3.org/TR/2001/REC-SVG-20010904/DTD/svg10.dtd">
<svg version="1.0" xmlns="http://www.w3.org/2000/svg"
 width="32.000000pt" height="32.000000pt" viewBox="0 0 32.000000 32.000000"
 preserveAspectRatio="xMidYMid meet">

<g transform="translate(0.000000,32.000000) scale(0.100000,-0.100000)"
fill="#000000" stroke="none">
<path d="M12 308 c-17 -17 -17 -279 0 -296 17 -17 279 -17 296 0 17 17 17 279
0 296 -17 17 -279 17 -296 0z m29 -115 c1 -17 2 -17 6 0 9 35 23 16 23 -33 0
-56 -17 -67 -27 -17 l-7 32 -7 -35 c-6 -31 -7 -30 -8 18 0 29 3 52 9 52 6 0
11 -8 11 -17z m84 6 c4 -6 4 -13 0 -17 -3 -3 -10 0 -15 8 -7 11 -10 2 -10 -29
0 -42 1 -44 15 -25 16 19 16 19 13 -1 -2 -12 -12 -21 -26 -23 -20 -3 -22 1
-22 47 0 44 3 51 19 51 11 0 23 -5 26 -11z m60 -39 c0 -39 -3 -45 -22 -48 -21
-3 -23 0 -23 48 0 48 2 51 23 48 19 -3 22 -9 22 -48z m54 33 c0 -11 -3 -13 -6
-5 -2 6 -9 10 -14 6 -5 -3 -1 -17 10 -30 11 -14 17 -32 14 -40 -8 -20 -43 -18
-43 4 0 14 2 15 10 2 5 -8 12 -11 16 -8 4 4 -1 19 -10 32 -22 34 -20 56 4 56
13 0 20 -6 19 -17z m61 5 c0 -27 -21 -88 -30 -88 -6 0 -6 10 0 26 15 38 12 62
-7 67 -11 3 -7 5 10 6 15 1 27 -4 27 -11z"/>
<path d="M157 193 c-11 -10 -8 -61 3 -68 6 -4 10 10 10 34 0 42 -2 46 -13 34z"/>
</g>
</svg>
